name Walk2.mot
datacolumns 19
datarows 15
range 3.14600000 3.16000000
endheader

                time	   L_ground_force_vx	   L_ground_force_vy	   L_ground_force_vz	   L_ground_force_px	   L_ground_force_py	   L_ground_force_pz	   R_ground_force_vx	   R_ground_force_vy	   R_ground_force_vz	   R_ground_force_px	   R_ground_force_py	   R_ground_force_pz	   L_ground_torque_x	   L_ground_torque_y	   L_ground_torque_z	   R_ground_torque_x	   R_ground_torque_y	   R_ground_torque_z	
          3.14600000	         -6.44062399	        108.56269059	         -5.13755517	          0.00119866	          0.00000000	          0.00289035	          0.00000000	         -0.00000000	         -0.00000000	         -0.00000000	          0.00000000	         -0.00000000	          0.00000000	          0.18759201	          0.00000000	          0.00000000	         -0.00000000	          0.00000000	
          3.14700000	         -9.04838642	        119.82320473	         -5.70838385	         -0.01387014	          0.00000000	          0.00137141	          0.00000000	         -0.00000000	         -0.00000000	         -0.00000000	          0.00000000	         -0.00000000	          0.00000000	          0.19844083	          0.00000000	          0.00000000	         -0.00000000	          0.00000000	
          3.14800000	        -11.68158012	        131.38209477	         -6.29815900	         -0.02887820	          0.00000000	         -0.00013564	          0.00000000	         -0.00000000	         -0.00000000	         -0.00000000	          0.00000000	         -0.00000000	          0.00000000	          0.21026797	          0.00000000	          0.00000000	         -0.00000000	          0.00000000	
          3.14900000	        -14.33461616	        143.22365621	         -6.90633840	         -0.04377423	          0.00000000	         -0.00162505	          0.00000000	         -0.00000000	         -0.00000000	         -0.00000000	          0.00000000	         -0.00000000	          0.00000000	          0.22311027	          0.00000000	          0.00000000	         -0.00000000	          0.00000000	
          3.15000000	        -17.00188343	        155.33031285	         -7.53230150	         -0.05851027	          0.00000000	         -0.00309161	          0.00000000	         -0.00000000	         -0.00000000	         -0.00000000	          0.00000000	         -0.00000000	          0.00000000	          0.23699801	          0.00000000	          0.00000000	         -0.00000000	          0.00000000	
          3.15100000	        -19.67783071	        167.68258220	         -8.17535168	         -0.07304275	          0.00000000	         -0.00453079	          0.00000000	         -0.00000000	         -0.00000000	         -0.00000000	          0.00000000	         -0.00000000	          0.00000000	          0.25195346	          0.00000000	          0.00000000	         -0.00000000	          0.00000000	
          3.15200000	        -22.35705496	        180.25906560	         -8.83471363	         -0.08733261	          0.00000000	         -0.00593873	          0.00000000	         -0.00000000	         -0.00000000	         -0.00000000	          0.00000000	         -0.00000000	          0.00000000	          0.26799059	          0.00000000	          0.00000000	         -0.00000000	          0.00000000	
          3.15300000	        -25.03440078	        193.03648600	         -9.50952522	         -0.10134504	          0.00000000	         -0.00731211	          0.00000000	         -0.00000000	         -0.00000000	         -0.00000000	          0.00000000	         -0.00000000	          0.00000000	          0.28511558	          0.00000000	          0.00000000	         -0.00000000	          0.00000000	
          3.15400000	        -27.70507294	        205.98979683	        -10.19882336	         -0.11504925	          0.00000000	         -0.00864813	          0.00000000	         -0.00000000	         -0.00000000	         -0.00000000	          0.00000000	         -0.00000000	          0.00000000	          0.30332752	          0.00000000	          0.00000000	         -0.00000000	          0.00000000	
          3.15500000	        -30.36475363	        219.09237459	        -10.90152317	         -0.12841820	          0.00000000	         -0.00994448	          0.00000000	         -0.00000000	         -0.00000000	         -0.00000000	          0.00000000	         -0.00000000	          0.00000000	          0.32261931	          0.00000000	          0.00000000	         -0.00000000	          0.00000000	
          3.15600000	        -33.00971239	        232.31629794	        -11.61639066	         -0.14142845	          0.00000000	         -0.01119926	          0.00000000	         -0.00000000	         -0.00000000	         -0.00000000	          0.00000000	         -0.00000000	          0.00000000	          0.34297867	          0.00000000	          0.00000000	         -0.00000000	          0.00000000	
          3.15700000	        -35.63689459	        245.63270328	        -12.34201021	         -0.15405986	          0.00000000	         -0.01241099	          0.00000000	         -0.00000000	         -0.00000000	         -0.00000000	          0.00000000	         -0.00000000	          0.00000000	          0.36438936	          0.00000000	          0.00000000	         -0.00000000	          0.00000000	
          3.15800000	        -38.24397590	        259.01219479	        -13.07674952	         -0.16629544	          0.00000000	         -0.01357855	          0.00000000	         -0.00000000	         -0.00000000	         -0.00000000	          0.00000000	         -0.00000000	          0.00000000	          0.38683240	          0.00000000	          0.00000000	         -0.00000000	          0.00000000	
          3.15900000	        -40.82937445	        272.42527783	        -13.81872548	         -0.17812111	          0.00000000	         -0.01470116	          0.00000000	         -0.00000000	         -0.00000000	         -0.00000000	          0.00000000	         -0.00000000	          0.00000000	          0.41028714	          0.00000000	          0.00000000	         -0.00000000	          0.00000000	
          3.16000000	        -43.39221842	        285.84278141	        -14.56577581	         -0.18952554	          0.00000000	         -0.01577834	          0.00000000	         -0.00000000	         -0.00000000	         -0.00000000	          0.00000000	         -0.00000000	          0.00000000	          0.43473217	          0.00000000	          0.00000000	         -0.00000000	          0.00000000	
